<?xml version="1.0" encoding="UTF-8" standalone="no"?> <svg xmlns="http://www.w3.org/2000/svg" viewBox="0 0 64 64"><defs><style>.cls-1{fill:#72c1dd;}.cls-2{fill:#231f20;}</style></defs><title>Laptop, monitor, rocket, seo, space_1</title><g id="_3" data-name="3"><path class="cls-1" d="M22.281,32.9l.012-.155Z"/><path class="cls-1" d="M22.476,30.5c.015-.178.029-.353.043-.524Z"/><path class="cls-1" d="M22.293,32.74l.029-.356Z"/><path class="cls-1" d="M22.394,31.508l.082-1.009C22.449,30.835,22.421,31.177,22.394,31.508Z"/><path class="cls-1" d="M22.358,31.951l.036-.443C22.381,31.667,22.369,31.812,22.358,31.951Z"/><path class="cls-1" d="M22.322,32.384l.036-.433Z"/><path class="cls-1" d="M22.268,33.046l.013-.151Z"/><path class="cls-1" d="M22.235,33.457l.015-.184Z"/><path class="cls-1" d="M22.226,33.569c0,.047,0,.045,0,0Z"/><path class="cls-1" d="M22.25,33.273l.018-.227Z"/><path class="cls-1" d="M22.226,33.569l.009-.112Z"/><path class="cls-1" d="M22.656,28.291l.011-.124Z"/><path class="cls-1" d="M22.519,29.975l.021-.26Z"/><path class="cls-1" d="M22.632,28.593l.022-.27Z"/><path class="cls-1" d="M41.563,42.375l-.23-14.208S39.938,16.75,32,10.5c0,0-8.333,5.417-9.333,17.667l-.445,14.208ZM32.084,24.1a2.605,2.605,0,1,1-2.605,2.605A2.605,2.605,0,0,1,32.084,24.1Z"/><path class="cls-1" d="M22.654,28.323l0-.032Z"/><path class="cls-1" d="M22.561,29.465l.038-.474C22.587,29.136,22.574,29.3,22.561,29.465Z"/><path class="cls-1" d="M22.614,28.816l.018-.223Z"/><path class="cls-1" d="M22.54,29.715l.021-.25Z"/><path class="cls-1" d="M22.6,28.991l.015-.175Z"/></g><g id="Layer_28" data-name="Layer 28"><path class="cls-2" d="M41.333,43.5H22.667a1,1,0,0,1-1-1V30.879a27.484,27.484,0,0,1,8.1-19.564l1.523-1.522a1,1,0,0,1,1.414,0l1.522,1.522a27.485,27.485,0,0,1,8.1,19.564V42.5A1,1,0,0,1,41.333,43.5Zm-17.666-2H40.333V30.879a25.5,25.5,0,0,0-7.518-18.15L32,11.914l-.816.815a25.5,25.5,0,0,0-7.517,18.15Z"/><path class="cls-2" d="M22.667,43.5H16a1,1,0,0,1-1-1V34.167a6.006,6.006,0,0,1,6-6h1.667a1,1,0,0,1,1,1V42.5A1,1,0,0,1,22.667,43.5ZM17,41.5h4.667V30.167H21a4,4,0,0,0-4,4Z"/><path class="cls-2" d="M48,43.5H41.333a1,1,0,0,1-1-1V29.167a1,1,0,0,1,1-1H43a6.006,6.006,0,0,1,6,6V42.5A1,1,0,0,1,48,43.5Zm-5.667-2H47V34.167a4,4,0,0,0-4-4h-.667Z"/><path class="cls-2" d="M32,30.167A3.667,3.667,0,1,1,35.667,26.5,3.672,3.672,0,0,1,32,30.167Zm0-5.334A1.667,1.667,0,1,0,33.667,26.5,1.669,1.669,0,0,0,32,24.833Z"/><path class="cls-2" d="M34,36.167H30a1,1,0,0,1,0-2h4a1,1,0,0,1,0,2Z"/><path class="cls-2" d="M37.333,47.5H26.667a1,1,0,0,1-1-1v-4a1,1,0,0,1,1-1H37.333a1,1,0,0,1,1,1v4A1,1,0,0,1,37.333,47.5Zm-9.666-2h8.666v-2H27.667Z"/><path class="cls-2" d="M28,51.5a1,1,0,0,1-1-1v-4a1,1,0,0,1,2,0v4A1,1,0,0,1,28,51.5Z"/><path class="cls-2" d="M32,55.5a1,1,0,0,1-1-1v-8a1,1,0,0,1,2,0v8A1,1,0,0,1,32,55.5Z"/><path class="cls-2" d="M36,51.5a1,1,0,0,1-1-1v-4a1,1,0,0,1,2,0v4A1,1,0,0,1,36,51.5Z"/></g></svg>