<?xml version="1.0" encoding="UTF-8" standalone="no"?> <svg xmlns="http://www.w3.org/2000/svg" viewBox="0 0 64 64"><defs><style>.cls-1{fill:#72c1dd;}.cls-2{fill:#231f20;}</style></defs><title>Document, email, inbox, marketing, message, post, seo</title><g id="_3" data-name="3"><polygon class="cls-1" points="17 8.167 17 31 32 42 47 31 47 8.167 17 8.167"/></g><g id="_2" data-name="2"><path class="cls-2" d="M52,57H12a1,1,0,0,1-1-1V27a1,1,0,0,1,1.6-.8L32,40.75,51.4,26.2A1,1,0,0,1,53,27V56A1,1,0,0,1,52,57ZM13,55H51V29L32.6,42.8a1,1,0,0,1-1.2,0L13,29Z"/><path class="cls-2" d="M32,43a1,1,0,0,1-.6-.2l-20-15a1,1,0,0,1,.027-1.619l5-3.5a1,1,0,1,1,1.146,1.638L13.7,27.028,32,40.75,50.3,27.028l-3.869-2.709a1,1,0,1,1,1.146-1.638l5,3.5A1,1,0,0,1,52.6,27.8l-20,15A1,1,0,0,1,32,43Z"/><path class="cls-2" d="M47,31.75a1,1,0,0,1-1-1V9H18V30.75a1,1,0,0,1-2,0V8a1,1,0,0,1,1-1H47a1,1,0,0,1,1,1V30.75A1,1,0,0,1,47,31.75Z"/><path class="cls-2" d="M17,48a1,1,0,0,1-.707-1.707l9-9a1,1,0,0,1,1.414,1.414l-9,9A1,1,0,0,1,17,48Z"/><path class="cls-2" d="M47,48a1,1,0,0,1-.707-.293l-9.286-9.286a1,1,0,0,1,1.414-1.414l9.286,9.286A1,1,0,0,1,47,48Z"/><path class="cls-2" d="M38,16H26a1,1,0,0,1,0-2H38a1,1,0,0,1,0,2Z"/><path class="cls-2" d="M38,24H26a1,1,0,0,1,0-2H38a1,1,0,0,1,0,2Z"/><path class="cls-2" d="M38,32H26a1,1,0,0,1,0-2H38a1,1,0,0,1,0,2Z"/></g></svg>